<?xml version="1.0" encoding="UTF-8" standalone="no"?>
<svg
   xmlns:osb="http://www.openswatchbook.org/uri/2009/osb"
   xmlns:dc="http://purl.org/dc/elements/1.1/"
   xmlns:cc="http://creativecommons.org/ns#"
   xmlns:rdf="http://www.w3.org/1999/02/22-rdf-syntax-ns#"
   xmlns:svg="http://www.w3.org/2000/svg"
   xmlns="http://www.w3.org/2000/svg"
   xmlns:xlink="http://www.w3.org/1999/xlink"
   id="svg3420"
   version="1.1"
   viewBox="0 0 110.58419 32.52816"
   height="32.52816mm"
   width="110.58419mm">
  <defs
     id="defs3414">
    <linearGradient
       gradientTransform="matrix(0.01527263,0,0,0.01527263,250.50037,228.76824)"
       osb:paint="solid"
       id="linearGradient2430">
      <stop
         id="stop2428"
         offset="0"
         style="stop-color:#ffffff;stop-opacity:1;" />
    </linearGradient>
    <linearGradient
       gradientUnits="userSpaceOnUse"
       y2="1301.4836"
       x2="927.42883"
       y1="1301.4836"
       x1="644.14093"
       id="linearGradient2432"
       xlink:href="#linearGradient2430" />
    <linearGradient
       y2="1301.4836"
       x2="927.42883"
       y1="1301.4836"
       x1="644.14093"
       gradientUnits="userSpaceOnUse"
       id="linearGradient4033"
       xlink:href="#linearGradient2430" />
    <linearGradient
       y2="1301.4836"
       x2="927.42883"
       y1="1301.4836"
       x1="644.14093"
       gradientUnits="userSpaceOnUse"
       id="linearGradient4035"
       xlink:href="#linearGradient2430" />
    <linearGradient
       y2="1301.4836"
       x2="927.42883"
       y1="1301.4836"
       x1="644.14093"
       gradientUnits="userSpaceOnUse"
       id="linearGradient4037"
       xlink:href="#linearGradient2430" />
    <linearGradient
       y2="1301.4836"
       x2="927.42883"
       y1="1301.4836"
       x1="644.14093"
       gradientUnits="userSpaceOnUse"
       id="linearGradient4039"
       xlink:href="#linearGradient2430" />
    <linearGradient
       y2="1301.4836"
       x2="927.42883"
       y1="1301.4836"
       x1="644.14093"
       gradientUnits="userSpaceOnUse"
       id="linearGradient4041"
       xlink:href="#linearGradient2430" />
    <linearGradient
       y2="1301.4836"
       x2="927.42883"
       y1="1301.4836"
       x1="644.14093"
       gradientUnits="userSpaceOnUse"
       id="linearGradient4043"
       xlink:href="#linearGradient2430" />
    <linearGradient
       y2="1301.4836"
       x2="927.42883"
       y1="1301.4836"
       x1="644.14093"
       gradientUnits="userSpaceOnUse"
       id="linearGradient4045"
       xlink:href="#linearGradient2430" />
  </defs>
  <metadata
     id="metadata3417">
    <rdf:RDF>
      <cc:Work
         rdf:about="">
        <dc:format>image/svg+xml</dc:format>
        <dc:type
           rdf:resource="http://purl.org/dc/dcmitype/StillImage" />
        <dc:title></dc:title>
      </cc:Work>
    </rdf:RDF>
  </metadata>
  <g
     transform="translate(-46.761476,-112.15854)"
     id="layer1">
    <path
       style="fill:none;stroke:url(#linearGradient2430);stroke-width:1.47200012;stroke-linecap:butt;stroke-linejoin:round;stroke-miterlimit:4;stroke-dasharray:none;stroke-opacity:1"
       d="m 78.131784,130.42006 v 4.25247 h 9.278146 v 4.63914 l 4.639067,-5e-5 v -4.63909 h 4.639075 v 4.63914 h 4.639068 v 4.63903 h 4.56524 v -4.63903 h 4.71291 v -4.63914 h 4.63907 v 4.63914 h 4.63907 v -4.63914 h 27.83444 v 4.63914 h 4.63908 v -4.63914 h 4.25247 v -4.25247 z"
       id="path2154-97" />
    <g
       id="text4136-3-2-7-42-4-8-91-36"
       style="font-style:normal;font-weight:normal;font-size:12px;line-height:0%;font-family:sans-serif;text-align:start;letter-spacing:0px;word-spacing:0px;text-anchor:start;fill:url(#linearGradient2432);fill-opacity:1;stroke:none;stroke-width:2.5;stroke-linecap:butt;stroke-linejoin:miter;stroke-miterlimit:4;stroke-dasharray:none;stroke-opacity:1"
       aria-label="DisProt"
       transform="matrix(0.28222223,0,0,0.28222223,-104.39536,-247.50422)">
      <path
         id="path1804"
         style="font-style:normal;font-variant:normal;font-weight:bold;font-stretch:normal;font-size:70.00164795px;line-height:1.25;font-family:'DejaVu Sans';-inkscape-font-specification:'DejaVu Sans Bold';fill:url(#linearGradient4033);fill-opacity:1;stroke:none;stroke-width:2.5;stroke-miterlimit:4;stroke-dasharray:none;stroke-opacity:1"
         d="m 657.30039,1286.4955 v 31.1384 h 4.71691 q 8.06659,0 12.30497,-3.9991 4.27256,-3.9991 4.27256,-11.6214 0,-7.588 -4.23838,-11.553 -4.23838,-3.9649 -12.33915,-3.9649 z m -13.15949,-9.9465 h 13.87728 q 11.62137,0 17.29533,1.6748 5.70814,1.6407 9.77562,5.6056 3.58895,3.4522 5.33215,7.9641 1.74321,4.5118 1.74321,10.2199 0,5.7765 -1.74321,10.3225 -1.7432,4.5119 -5.33215,7.9641 -4.10166,3.9649 -9.84398,5.6398 -5.74233,1.6406 -17.22697,1.6406 H 644.1409 Z" />
      <path
         id="path1806"
         style="font-style:normal;font-variant:normal;font-weight:bold;font-stretch:normal;font-size:70.00164795px;line-height:1.25;font-family:'DejaVu Sans';-inkscape-font-specification:'DejaVu Sans Bold';fill:url(#linearGradient4035);fill-opacity:1;stroke:none;stroke-width:2.5;stroke-miterlimit:4;stroke-dasharray:none;stroke-opacity:1"
         d="m 701.70085,1289.2983 h 12.23661 v 38.2821 h -12.23661 z m 0,-14.9027 h 12.23661 v 9.9807 h -12.23661 z" />
      <path
         id="path1808"
         style="font-style:normal;font-variant:normal;font-weight:bold;font-stretch:normal;font-size:70.00164795px;line-height:1.25;font-family:'DejaVu Sans';-inkscape-font-specification:'DejaVu Sans Bold';fill:url(#linearGradient4037);fill-opacity:1;stroke:none;stroke-width:2.5;stroke-miterlimit:4;stroke-dasharray:none;stroke-opacity:1"
         d="m 755.67185,1290.4946 v 9.2971 q -3.93076,-1.6407 -7.58807,-2.461 -3.65731,-0.8203 -6.90446,-0.8203 -3.48641,0 -5.19544,0.8887 -1.67484,0.8545 -1.67484,2.666 0,1.4698 1.26468,2.256 1.29886,0.7861 4.61436,1.1621 l 2.15338,0.3076 q 9.39963,1.1963 12.64678,3.9308 3.24714,2.7344 3.24714,8.5793 0,6.1183 -4.51182,9.1945 -4.51183,3.0763 -13.46711,3.0763 -3.79404,0 -7.86152,-0.6153 -4.0333,-0.581 -8.30586,-1.7774 v -9.297 q 3.65732,1.7773 7.48553,2.666 3.8624,0.8887 7.82733,0.8887 3.58896,0 5.40052,-0.9912 1.81157,-0.9912 1.81157,-2.9395 0,-1.6407 -1.26468,-2.4269 -1.2305,-0.8203 -4.95617,-1.2646 l -2.15337,-0.2735 q -8.16914,-1.0254 -11.45047,-3.794 -3.28133,-2.7686 -3.28133,-8.4084 0,-6.0841 4.17002,-9.0237 4.17002,-2.9395 12.78351,-2.9395 3.38387,0 7.10954,0.5127 3.72567,0.5127 8.10078,1.6065 z" />
      <path
         id="path1810"
         style="font-style:normal;font-variant:normal;font-weight:bold;font-stretch:normal;font-size:70.00164795px;line-height:1.25;font-family:'DejaVu Sans';-inkscape-font-specification:'DejaVu Sans Bold';fill:url(#linearGradient4039);fill-opacity:1;stroke:none;stroke-width:2.5;stroke-miterlimit:4;stroke-dasharray:none;stroke-opacity:1"
         d="m 768.011,1276.549 h 21.84133 q 9.74145,0 14.93688,4.3409 5.22962,4.3067 5.22962,12.305 0,8.0324 -5.22962,12.3733 -5.19543,4.3067 -14.93688,4.3067 h -8.68184 v 17.7055 H 768.011 Z m 13.15949,9.5363 v 14.2533 h 7.28044 q 3.82822,0 5.91323,-1.8458 2.08501,-1.8799 2.08501,-5.2979 0,-3.4181 -2.08501,-5.2638 -2.08501,-1.8458 -5.91323,-1.8458 z" />
      <path
         id="path1812"
         style="font-style:normal;font-variant:normal;font-weight:bold;font-stretch:normal;font-size:70.00164795px;line-height:1.25;font-family:'DejaVu Sans';-inkscape-font-specification:'DejaVu Sans Bold';fill:url(#linearGradient4041);fill-opacity:1;stroke:none;stroke-width:2.5;stroke-miterlimit:4;stroke-dasharray:none;stroke-opacity:1"
         d="m 847.17302,1299.7233 q -1.60648,-0.7519 -3.21297,-1.0937 -1.5723,-0.376 -3.17878,-0.376 -4.71691,0 -7.28045,3.042 -2.52935,3.0079 -2.52935,8.6477 v 17.6371 h -12.23662 v -38.2821 h 12.23662 v 6.2892 q 2.35845,-3.7599 5.40051,-5.4689 3.07625,-1.7432 7.34881,-1.7432 0.61525,0 1.33304,0.068 0.71779,0.034 2.08501,0.2051 z" />
      <path
         id="path1814"
         style="font-style:normal;font-variant:normal;font-weight:bold;font-stretch:normal;font-size:70.00164795px;line-height:1.25;font-family:'DejaVu Sans';-inkscape-font-specification:'DejaVu Sans Bold';fill:url(#linearGradient4043);fill-opacity:1;stroke:none;stroke-width:2.5;stroke-miterlimit:4;stroke-dasharray:none;stroke-opacity:1"
         d="m 871.5437,1297.1256 q -4.06747,0 -6.22085,2.9395 -2.11919,2.9054 -2.11919,8.4084 0,5.5031 2.11919,8.4426 2.15338,2.9054 6.22085,2.9054 3.99912,0 6.11831,-2.9054 2.11919,-2.9395 2.11919,-8.4426 0,-5.503 -2.11919,-8.4084 -2.11919,-2.9395 -6.11831,-2.9395 z m 0,-8.7502 q 9.87817,0 15.41541,5.3322 5.57142,5.3321 5.57142,14.7659 0,9.4339 -5.57142,14.766 -5.53724,5.3322 -15.41541,5.3322 -9.91234,0 -15.51794,-5.3322 -5.57142,-5.3321 -5.57142,-14.766 0,-9.4338 5.57142,-14.7659 5.6056,-5.3322 15.51794,-5.3322 z" />
      <path
         id="path1816"
         style="font-style:normal;font-variant:normal;font-weight:bold;font-stretch:normal;font-size:70.00164795px;line-height:1.25;font-family:'DejaVu Sans';-inkscape-font-specification:'DejaVu Sans Bold';fill:url(#linearGradient4045);fill-opacity:1;stroke:none;stroke-width:2.5;stroke-miterlimit:4;stroke-dasharray:none;stroke-opacity:1"
         d="m 914.81622,1278.4289 v 10.8694 h 12.6126 v 8.7502 h -12.6126 v 16.2357 q 0,2.6661 1.05959,3.6232 1.0596,0.9228 4.2042,0.9228 h 6.28921 v 8.7502 h -10.49341 q -7.24626,0 -10.28832,-3.0078 -3.00789,-3.0421 -3.00789,-10.2884 v -16.2357 h -6.08413 v -8.7502 h 6.08413 v -10.8694 z" />
    </g>
    <g
       transform="translate(-7.799109,-7.3793212)"
       id="g3321">
      <path
         style="fill:url(#linearGradient2430);stroke:none;stroke-width:0.75590551;stroke-miterlimit:4;stroke-dasharray:none"
         d="m 258.19531,451.79688 c -0.14314,-7.1e-4 -0.29608,0.008 -0.45508,0.0273 -0.49235,0.0612 -0.86451,0.20335 -1.27929,0.52148 -0.29889,0.22926 -0.5104,0.50596 -0.5293,0.5293 -0.54018,0.6671 -0.70434,1.44635 -0.72461,2.01953 -0.0178,0.50241 0.0725,1.52954 0.83985,2.29688 0.5129,0.51296 1.19309,0.69874 1.28515,0.72656 0.3028,0.0915 0.60333,0.15229 0.91992,0.20508 0.63963,0.1067 1.39935,0.18322 2.28711,0.23828 0.2777,0.0172 0.63717,0.0541 0.92188,0.0859 0.14235,0.0159 0.26654,0.0299 0.35547,0.041 0.0445,0.006 0.0809,0.0106 0.10351,0.0137 0.0226,0.003 0.18002,0.0378 -0.0391,-0.01 a 1.1010082,1.1010082 0 0 0 0.14844,0.0215 c 0.52488,0.1045 1.15943,0.18687 1.83789,0.25977 0.49269,0.0529 1.73777,0.27425 2.34375,0.42383 0.81488,0.20113 1.79025,0.41598 2.40234,0.51757 1.37427,0.2281 4.38593,1.6543 5.39258,2.53907 -9e-4,-8e-4 0.25541,0.29527 0.48242,0.70898 0.22702,0.41373 0.47036,0.96533 0.66211,1.58984 0.11251,0.36642 0.24023,2.29544 -0.12695,4.82032 -0.26107,1.79515 -0.32614,2.0348 -1.17188,4.58789 -0.26994,0.81491 -0.51316,1.58451 -0.69531,2.18554 -0.0909,0.30003 -0.16791,0.55569 -0.22656,0.77149 -0.0285,0.1048 -0.0538,0.20592 -0.0781,0.3125 0.0437,-0.1914 -0.0781,0.24357 -0.0781,0.625 0,0.74541 0.26005,1.43836 0.67968,1.92187 0.41964,0.4835 0.94269,0.75596 1.42579,0.9336 0.27573,0.10138 0.98333,0.34464 1.80078,0.15234 0.90523,-0.21292 1.46244,-0.80877 1.79492,-1.32226 0.55589,-0.85848 0.80541,-1.74572 1.29101,-3.22657 1.40065,-4.27135 1.86676,-6.75542 1.86915,-10.1289 0.002,-2.26402 -0.27134,-3.46588 -1.29883,-5.67969 -0.92391,-1.99064 -2.39709,-3.42455 -4.74219,-4.82031 a 1.1010082,1.1010082 0 0 0 -0.11523,-0.0586 c -1.66142,-0.96375 -4.21067,-1.86756 -6.09961,-2.19336 -0.48848,-0.0842 -1.65303,-0.32549 -2.39063,-0.5 -0.90058,-0.21306 -1.95535,-0.41011 -2.74219,-0.47656 -0.40061,-0.0338 -1.27482,-0.15272 -1.61132,-0.2168 -0.67603,-0.12877 -1.46363,-0.20898 -2.15039,-0.20898 -0.21829,0 -1.07531,-0.0709 -1.32032,-0.11133 -0.17275,-0.0285 -0.33481,-0.067 -0.57226,-0.0976 -0.11893,-0.0153 -0.25335,-0.0247 -0.39649,-0.0254 z m -0.21484,1.96289 c 0.23493,-0.0289 0.45245,0.0194 0.86719,0.0879 0.4397,0.0728 1.2038,0.13476 1.63476,0.13476 0.49918,0 1.27141,0.0772 1.78906,0.17578 0.46536,0.0889 1.29897,0.20094 1.81055,0.24414 0.5717,0.0483 1.64495,0.23758 2.45703,0.42969 0.78635,0.18603 1.92728,0.42523 2.50782,0.52539 1.53001,0.2639 4.29508,1.25962 5.54882,2.00586 2.18329,1.29952 3.2042,2.31137 3.97071,3.96289 0.9948,2.14336 1.11675,2.68324 1.11523,4.85742 -0.002,3.21003 -0.39771,5.33215 -1.77148,9.52149 -0.48653,1.48373 -0.75946,2.29198 -1.07227,2.77539 -0.1564,0.24171 -0.3578,0.42418 -0.60547,0.48242 -0.24766,0.0583 -0.46741,-0.006 -0.67969,-0.084 -0.45542,-0.16747 -0.82617,-0.52989 -0.82617,-1.02344 0,-0.10165 0.0128,-0.12545 0.0274,-0.18945 0.0146,-0.0639 0.0354,-0.13984 0.0605,-0.23243 0.0502,-0.18506 0.1214,-0.42925 0.20899,-0.71875 0.17518,-0.57909 0.41438,-1.33966 0.67968,-2.14062 0.85094,-2.56864 0.98371,-3.08878 1.25,-4.91992 0.38789,-2.6671 0.38829,-4.61477 0.0625,-5.67578 -0.45771,-1.49078 -1.11554,-2.65776 -1.72265,-3.19141 -1.47564,-1.29707 -4.3876,-2.67079 -6.35938,-2.99805 -0.48733,-0.0807 -1.48204,-0.29625 -2.25195,-0.48633 -0.74002,-0.18272 -1.94072,-0.40097 -2.60742,-0.47265 -0.70262,-0.0754 -1.46527,-0.17545 -1.78125,-0.24414 -0.19695,-0.0428 -0.98218,-0.13156 -1.63281,-0.17188 -0.84296,-0.0523 -1.55323,-0.12545 -2.08985,-0.21484 -0.26831,-0.0447 -0.49176,-0.093 -0.67578,-0.14844 -0.18402,-0.0556 -0.32362,-0.0951 -0.4668,-0.23828 -0.23798,-0.23808 -0.28259,-0.55023 -0.27148,-0.85156 0.0111,-0.30134 0.0888,-0.60772 0.29102,-0.85742 0.0564,-0.0697 0.11374,-0.14236 0.20312,-0.21094 0.0894,-0.0685 0.21261,-0.11831 0.33008,-0.13281 z m -35.68164,5.30859 c -0.28677,-0.0105 -0.55993,0.003 -0.84375,0.0234 -1.69095,0.12038 -4.25216,0.47605 -5.88086,1.08789 -1.59289,0.59833 -3.15316,1.45132 -4.35352,2.45117 -2.177,1.8134 -3.36328,3.60585 -3.98632,6.10547 -0.16862,0.67645 -0.4612,1.69116 -0.53711,1.91406 -0.24268,0.71257 -0.37717,1.45494 -0.43946,2.16211 -0.0574,0.65137 -0.10686,1.40938 0.17188,2.25391 0.18663,0.56548 0.53077,1.11758 1.01758,1.5625 0.35085,1.19168 0.98156,2.21207 1.94531,3.29882 0.89756,1.01211 2.9468,3.8158 4.02539,5.56055 0.87517,1.41571 2.20992,3.19955 3.47265,4.66602 0.95756,1.11205 2.93266,3.96161 3.38086,4.80078 0.47441,0.88816 0.73477,1.92537 0.73633,3.05078 9.3e-4,1.43908 -0.35219,4.52516 -0.91992,7.4707 -0.19563,1.01489 -0.40649,2.17216 -0.49219,2.73828 -0.28488,1.88223 -0.49811,3.13628 -0.70508,4.16407 -0.13541,0.67243 -0.29968,1.58411 -0.38671,2.15234 -0.0523,0.34102 -0.28219,1.53509 -0.46875,2.38281 -0.1966,0.89333 -0.51336,2.32963 -0.70313,3.18946 -1.6747,7.58744 -2.03373,9.93409 -2.03906,13.43164 -0.003,1.79335 0.0856,2.62065 0.38281,3.57422 0.79205,2.54083 1.70783,3.95096 4.53125,6.90429 4.71987,4.93706 7.94606,7.197 12.20703,8.30664 a 1.1010082,1.1010082 0 0 0 0.002,0 c 1.6756,0.43635 3.19576,0.81862 4.39843,1.10547 1.19704,0.28553 2.00153,0.47375 2.61328,0.55664 1.38669,0.18784 3.34685,0.18891 4.74219,0.008 2.03193,-0.26378 4.58529,-1.34863 6.66406,-2.55273 1.17634,-0.68136 2.05728,-1.73686 3.01954,-2.95312 0.98266,-1.2421 1.96497,-2.69206 2.72656,-4.10547 0.26411,-0.4901 0.77989,-1.37764 1.04101,-1.79102 0.97138,-1.53773 2.13036,-3.51281 2.6875,-4.61914 0.34246,-0.68001 0.91779,-1.9461 1.44336,-3.12891 0.26296,-0.59179 0.50841,-1.1517 0.69336,-1.58789 0.0921,-0.21715 0.16929,-0.40235 0.23242,-0.5625 0.031,-0.0786 0.0621,-0.15663 0.0918,-0.24218 0.0122,-0.0351 0.035,-0.10262 0.0566,-0.17969 -0.0572,0.20377 -0.006,0.0674 0.0391,-0.11914 0.006,-0.0262 0.003,-0.0493 0.008,-0.0742 0.004,-0.0155 0.004,-0.0152 0.01,-0.0352 0.0292,-0.10104 0.0782,-0.26836 0.14063,-0.4707 0.12498,-0.40487 0.30213,-0.96259 0.49609,-1.55859 1.98167,-6.08913 2.42457,-7.89234 2.65625,-10.81055 l 0.0723,-0.9043 0.42968,-0.41015 0.008,-0.006 c 0.27172,-0.25857 0.59519,-0.55291 0.85547,-0.78516 0.13014,-0.11611 0.24475,-0.21635 0.32812,-0.28906 0.0834,-0.0727 0.23238,-0.18697 0.10156,-0.0879 0.18831,-0.14258 0.36783,-0.29731 0.53711,-0.46875 0.0738,-0.0748 0.18702,-0.1948 0.29883,-0.34571 -0.1781,0.24031 0.04,0.0336 0.2207,-0.27734 0.18069,-0.31095 0.24707,-0.65633 0.26368,-1.06055 a 1.1010082,1.1010082 0 0 0 0,-0.004 c 0.012,-0.29794 -0.0213,-0.57071 -0.0977,-0.80469 -0.0763,-0.23398 -0.18967,-0.41883 -0.15039,-0.33984 -0.0762,-0.15316 -0.16538,-0.28716 -0.20508,-0.34375 -0.10123,-0.14422 -0.20275,-0.26035 -0.27734,-0.34375 -0.16516,-0.1847 -0.3451,-0.36135 -0.53907,-0.53516 -0.0519,-0.0465 -0.26739,-0.27667 -0.62304,-0.50781 -0.35331,-0.22959 -0.6569,-0.30607 -1.01758,-0.36524 -0.0613,-0.01 -0.13007,-0.008 -0.19336,-0.0156 -0.007,-0.4298 -0.011,-0.88573 -0.0234,-1.25781 -0.0149,-0.44627 -0.015,-0.98824 -0.008,-1.44336 0.007,-0.45511 0.0322,-0.89511 0.0312,-0.88672 0.0413,-0.36869 0.12534,-0.83726 0.0156,-1.44922 -0.1385,-0.77254 -0.55052,-1.2666 -0.76171,-1.51758 -0.4071,-0.48382 -1.00126,-0.94487 -1.79493,-1.12109 -0.81629,-0.18124 -1.57553,-0.004 -2.18554,0.32226 -1.03065,0.5516 -1.51201,1.5578 -1.71094,2.52149 -0.1746,0.84575 -0.23,1.80235 -0.29492,3.25586 -0.10962,2.45386 -0.0901,3.27997 0.10742,4.71875 0.13029,0.94874 0.14835,0.74098 -0.13867,1.6582 -0.011,0.01 -0.24272,0.25917 -0.69727,0.67187 -2.15542,1.95684 -6.92574,6.79401 -10.20117,10.32032 -3.53791,3.80884 -4.45321,4.73915 -7.9082,8.03125 -2.41941,2.30531 -3.61708,3.43163 -4.39844,4.30664 -0.83187,0.93156 -1.19627,1.82772 -1.39648,2.5 -0.1659,0.55704 -0.3685,1.28141 -0.21289,2.13672 0.17424,0.95778 0.74614,1.60678 1.2207,2.02343 0.73111,0.6419 1.79096,1.12832 3.0332,0.85547 0.99783,-0.21921 1.70586,-0.74276 2.47852,-1.30859 0.21095,-0.15446 1.25253,-0.84308 1.99609,-1.29688 2.22038,-1.3551 4.10757,-3.03051 6.08399,-5.34961 1.83788,-2.15651 2.29109,-2.56068 4.58593,-4.08984 0.38176,-0.2544 0.73188,-0.5124 1.08008,-0.77148 -0.77339,1.664 -1.49293,3.0321 -2.86523,5.25 -0.44303,0.71602 -0.93475,1.55842 -1.2168,2.11718 -0.3484,0.69015 -2.07676,3.23227 -2.59961,3.82032 -0.0933,0.10496 -0.33663,0.33485 -0.55273,0.52148 -0.21611,0.18661 -0.51786,0.39754 -0.39649,0.32422 -0.51215,0.30943 -2.39118,1.17341 -3.16992,1.43359 0.0509,-0.017 -0.19921,0.0461 -0.48633,0.0859 -0.28712,0.0399 -0.65539,0.0804 -1.04687,0.11133 -0.78298,0.0619 -1.68258,0.0839 -2.19727,0.0371 -0.28585,-0.026 -1.40826,-0.2312 -2.80273,-0.54688 -1.39448,-0.31567 -3.12973,-0.74416 -4.91407,-1.23242 -0.29144,-0.0797 -1.25898,-0.53484 -2.28515,-1.17969 -1.02618,-0.64482 -2.18317,-1.48521 -3.16992,-2.36133 -0.63054,-0.55982 -1.88932,-1.82642 -2.96875,-2.98046 -0.54019,-0.57754 -1.04909,-1.13664 -1.4336,-1.58008 -0.18317,-0.21124 -0.35024,-0.42119 -0.4707,-0.57422 -0.0581,-0.0738 -0.10398,-0.13301 -0.13672,-0.17578 0.0107,0.0108 -0.46222,-0.96406 -0.61914,-1.4082 -0.38648,-1.094 -0.49154,-2.26965 -0.23047,-4.1836 0.11278,-0.82682 0.25872,-2.03517 0.33399,-2.7793 0.0292,-0.28832 0.0808,-0.66705 0.13085,-0.98632 0.05,-0.31928 0.11782,-0.65193 0.10547,-0.60352 0.13309,-0.5217 0.40534,-1.77176 0.67383,-3.04297 0.3586,-1.69777 0.72026,-3.37403 0.99805,-4.64258 0.13886,-0.63411 0.2559,-1.16733 0.3418,-1.54492 0.0431,-0.18962 0.0788,-0.34083 0.10156,-0.43555 -0.007,0.028 0.0128,-0.039 0.0254,-0.0781 0.003,-0.01 -0.009,0.0477 0.0234,-0.082 0.004,-0.0162 0.0215,-0.10144 0.0215,-0.10156 0,0 -4.2e-4,-0.0238 0,-0.0312 0.004,-0.0192 0.0358,-0.12513 0.0332,-0.11328 0.0224,-0.10403 0.0445,-0.21809 0.0684,-0.34376 0.048,-0.25261 0.1029,-0.55991 0.15625,-0.88281 0.0954,-0.57751 0.31865,-1.84505 0.48633,-2.75781 0.57358,-3.12228 0.76695,-4.22746 0.85938,-5.02734 0.008,-0.0734 0.18284,-1.10856 0.32421,-1.77149 0.34895,-1.63635 0.72358,-4.30611 0.95313,-6.6582 0.26821,-2.74813 -0.2015,-5.44434 -1.44336,-7.73047 -0.83773,-1.54217 -2.78396,-4.26273 -4.01758,-5.69141 -1.06577,-1.2343 -2.31728,-2.91662 -2.79492,-3.69921 -1.24387,-2.03804 -3.46253,-5.16154 -4.75781,-6.55274 -0.69413,-0.74552 -0.71666,-0.786 -0.92578,-1.46484 -0.16451,-0.53399 -0.44001,-1.0605 -0.80078,-1.55469 0.051,-0.24847 0.17516,-0.80377 0.15624,-0.75 0.20416,-0.5802 0.40815,-1.36612 0.56055,-2.06445 0.29313,-1.34304 0.65537,-1.92935 1.60156,-2.69532 0.94625,-0.76605 0.84914,-0.70446 2.1543,-1.30273 1.10217,-0.50519 2.02261,-0.73634 3.99219,-0.9375 0.37855,-0.0387 0.75974,-0.0858 1.08984,-0.13281 0.29469,-0.0419 0.56517,-0.0711 0.92774,-0.17383 0.0651,-0.0184 0.34312,-0.0931 0.63281,-0.24414 0.42939,-0.22382 0.78137,-0.50775 1.07422,-1.0586 0.3977,-0.74805 0.31522,-1.54897 0.31445,-1.60156 -0.004,-0.28456 -0.0297,-0.56599 -0.084,-0.84375 -0.0255,-0.13041 -0.0659,-0.30253 -0.13282,-0.49023 0.0142,0.0399 -0.19974,-0.55702 -0.58984,-0.94727 -0.26524,-0.26532 -0.5539,-0.45953 -0.83984,-0.56445 -0.28595,-0.10491 -0.53444,-0.12113 -0.44336,-0.10352 -0.21718,-0.042 -0.40891,-0.0539 -0.53711,-0.0586 z m -0.0723,1.95117 c 0.0866,0.003 0.16414,0.009 0.24024,0.0234 0.0761,0.0146 0.15624,0.0156 0.27343,0.13281 0.0885,0.0889 0.10692,0.15372 0.13086,0.2207 0.0239,0.0669 0.042,0.13628 0.0566,0.21094 0.0294,0.14923 0.0445,0.32031 0.0469,0.4961 0.004,0.26794 0.0272,0.44284 -0.0879,0.6582 -0.0575,0.10763 -0.16064,0.19667 -0.25195,0.24414 -0.0913,0.0475 -0.1719,0.0703 -0.26172,0.0957 -0.15266,0.0435 -0.37207,0.0785 -0.67188,0.1211 -0.2998,0.0427 -0.65939,0.0871 -1.01172,0.12304 -2.074,0.21184 -3.30902,0.51017 -4.60742,1.10547 a 0.34247982,0.34247982 0 0 1 -0.004,0 c -1.32754,0.60854 -1.59462,0.77228 -2.56835,1.56055 -1.22648,0.99285 -1.91848,2.13974 -2.2793,3.79297 -0.13704,0.62784 -0.34896,1.42889 -0.49219,1.83593 -0.11418,0.32449 -0.2558,0.98599 -0.29101,1.375 -0.0342,0.37793 -0.0333,0.55438 -0.0195,0.60547 0.0137,0.051 0.0409,0.0856 0.22071,0.25586 0.31527,0.29856 0.53834,0.73721 0.70898,1.29102 0.26537,0.86144 0.58267,1.38238 1.36133,2.21875 1.00788,1.08245 3.36901,4.35191 4.52148,6.24023 0.59976,0.98272 1.84705,2.64215 2.98243,3.95703 1.06292,1.23094 3.12253,4.1387 3.77929,5.34766 1.03168,1.89931 1.45344,4.20479 1.21875,6.60938 -0.22309,2.28597 -0.60371,4.95657 -0.91992,6.43945 -0.15345,0.71947 -0.31748,1.62828 -0.35547,1.95703 -0.0793,0.6864 -0.26713,1.77904 -0.83984,4.89648 -0.16991,0.92502 -0.39188,2.18583 -0.49219,2.79297 -0.051,0.30859 -0.10439,0.60515 -0.14844,0.83789 -0.022,0.11638 -0.0416,0.21589 -0.0586,0.29493 -0.017,0.079 -0.0208,0.11314 -0.0508,0.19335 0.0182,-0.0487 -0.0142,0.0568 -0.041,0.16797 -0.0268,0.11115 -0.0615,0.26571 -0.10547,0.45899 -0.088,0.38634 -0.20988,0.92332 -0.3496,1.56054 -0.27945,1.27467 -0.64043,2.95385 -1,4.65626 -0.26618,1.26026 -0.55677,2.57487 -0.65626,2.96484 -0.08,0.31349 -0.21628,1.19621 -0.28515,1.87695 -0.071,0.7023 -0.21567,1.9151 -0.32422,2.71094 -0.28699,2.10389 -0.18297,3.66747 0.32227,5.09766 0.21664,0.61322 0.59706,1.45409 0.79687,1.78711 0.0817,0.13621 0.38672,0.52722 0.79492,0.99804 0.40821,0.47083 0.9292,1.04319 1.48242,1.63477 1.10644,1.18314 2.35176,2.44513 3.09766,3.10742 2.1601,1.91787 4.81584,3.57615 6.23633,3.96484 3.62307,0.99136 6.93148,1.73766 8.05664,1.83985 1.42423,0.12938 3.71844,-0.0561 4.52539,-0.32618 1.01991,-0.34069 2.76241,-1.13494 3.56055,-1.61718 0.33608,-0.2031 1.00967,-0.77762 1.39843,-1.21485 0.79842,-0.89802 2.34521,-3.17332 2.88282,-4.23828 0.21551,-0.42698 0.71469,-1.29692 1.13281,-1.97265 1.96812,-3.18091 2.60036,-4.39202 4.04492,-7.78711 0.607,-1.42656 1.02756,-2.6731 2.5332,-7.49219 0.21801,-0.69781 0.39614,-1.39647 0.56641,-2.0625 -0.0292,0.0587 -0.0484,0.0903 -0.0781,0.15039 -1.50958,3.05472 -2.36397,4.54055 -3.3086,5.74023 -1.40335,1.7824 -2.73506,3.00753 -4.71094,4.32422 -2.34648,1.56352 -3.11408,2.24578 -4.99023,4.44727 -1.88257,2.20885 -3.58019,3.7073 -5.61523,4.94922 -0.78795,0.48085 -1.76828,1.12019 -2.13477,1.38867 -0.74394,0.54475 -1.24871,0.86787 -1.74219,0.97656 -0.49347,0.1087 -0.94546,-0.0798 -1.32617,-0.41406 -0.30088,-0.26411 -0.52427,-0.54852 -0.58984,-0.9082 -0.0656,-0.35979 0.011,-0.73184 0.16015,-1.23243 0.18026,-0.60533 0.32017,-1.01047 0.98633,-1.75585 0.66617,-0.7455 1.86866,-1.88712 4.28906,-4.19336 3.46369,-3.30048 4.44743,-4.29903 7.99219,-8.11524 3.23653,-3.48448 8.05665,-8.3644 10.08203,-10.20312 0.4968,-0.45099 0.7778,-0.72425 0.94141,-0.92969 0.16361,-0.20533 0.22154,-0.3377 0.30469,-0.60352 0.31593,-1.0096 0.35442,-1.46106 0.21093,-2.50586 -0.18893,-1.37578 -0.20044,-1.93529 -0.0918,-4.36718 0.064,-1.43179 0.1302,-2.33475 0.25781,-2.95118 0.12761,-0.61632 0.36191,-1.00427 0.71875,-1.19531 0.26604,-0.14229 0.56337,-0.19901 0.84375,-0.13672 0.28038,0.0624 0.52432,0.23458 0.72461,0.47266 0.15612,0.18549 0.2909,0.36355 0.33398,0.60547 0.0431,0.24181 0.0109,0.47768 -0.0352,0.88867 -0.0465,0.41472 -0.0659,1.6328 -0.0332,2.61328 0.0333,0.99872 0.0606,2.54749 0.0606,3.45703 v 0.875 l 0.25,-0.22461 c 0.62826,-0.5649 0.86817,-0.85599 1.24414,-0.98047 0.18799,-0.0622 0.42465,-0.01 0.56641,0.082 0.14175,0.0918 0.24327,0.19739 0.38476,0.32421 0.14951,0.13398 0.28149,0.26861 0.38477,0.38477 0.0516,0.0581 0.0968,0.10956 0.13476,0.16406 0.019,0.0273 0.0364,0.0547 0.0547,0.0918 0.0183,0.0371 0.0498,0.0765 0.0449,0.19727 -0.008,0.18421 -0.0632,0.20689 -0.0996,0.25585 -0.0364,0.0491 -0.0761,0.0932 -0.12109,0.13868 -0.0899,0.0907 -0.20378,0.18706 -0.32812,0.28125 -0.17604,0.13333 -0.86636,0.75016 -1.45118,1.30664 l -0.97656,0.92968 -0.13281,1.64844 c -0.22225,2.79947 -0.592,4.29651 -2.56641,10.36328 -0.19666,0.60427 -0.37475,1.16575 -0.5039,1.58399 -0.0646,0.20906 -0.117,0.38351 -0.15235,0.50586 -0.0177,0.0612 -0.0309,0.10916 -0.0391,0.14062 -0.004,0.0158 -0.005,0.0276 -0.006,0.0312 -7.8e-4,0.004 0.002,0.0195 0.002,-0.0469 0,0.0885 -0.0111,0.094 -0.0176,0.11718 -0.006,0.023 -0.0115,0.0435 -0.0195,0.0664 -0.016,0.0461 -0.0385,0.1002 -0.0645,0.16602 -0.052,0.13173 -0.12396,0.30797 -0.21289,0.51757 -0.17785,0.4192 -0.41974,0.9719 -0.67969,1.55665 -0.51989,1.16938 -1.10839,2.45729 -1.40429,3.04492 -0.48061,0.95424 -1.65442,2.96814 -2.59375,4.45508 -0.30654,0.48533 -0.81201,1.3524 -1.10938,1.90429 -0.69166,1.28363 -1.62672,2.666 -2.54101,3.82227 -0.9143,1.15637 -1.7785,2.07784 -2.4668,2.47656 -1.87547,1.08629 -4.48026,2.11361 -5.9375,2.30273 -1.08218,0.14048 -3.0464,0.13772 -4.14649,-0.006 a 0.34247982,0.34247982 0 0 1 -0.082,0 c -0.39834,-0.054 -1.23969,-0.23751 -2.42383,-0.51954 -1.18412,-0.28213 -2.69213,-0.66015 -4.35742,-1.09375 -3.89385,-1.01408 -6.66421,-2.92779 -11.29101,-7.76757 -2.77799,-2.90571 -3.33376,-3.74682 -4.07813,-6.13477 -0.25364,-0.81365 -0.29563,-1.23816 -0.29297,-2.99219 0.005,-3.37418 0.32255,-5.45104 1.99219,-13.01562 0.1899,-0.86038 0.50443,-2.29548 0.70117,-3.18946 0.19528,-0.88725 0.42136,-2.03271 0.49414,-2.50781 0.0778,-0.50762 0.2431,-1.42492 0.3711,-2.06055 0.2164,-1.07466 0.43349,-2.36205 0.7207,-4.25976 0.0725,-0.47915 0.28639,-1.66346 0.47852,-2.66016 0.58554,-3.03797 0.95834,-6.11767 0.95703,-7.84375 -0.002,-1.42549 -0.33394,-2.78194 -0.9668,-3.96679 -0.63669,-1.192 -2.50233,-3.85041 -3.625,-5.1543 -1.19206,-1.38443 -2.50348,-3.1428 -3.29297,-4.41992 -1.15827,-1.8736 -3.14678,-4.61266 -4.22461,-5.82813 -0.87111,-0.98229 -1.26569,-1.63666 -1.53711,-2.57031 -0.13049,-0.44885 -0.25417,-0.63619 -0.41406,-0.75 -0.10255,-0.073 -0.18454,-0.17267 -0.26758,-0.26953 -0.0629,0.0599 -0.11674,0.11134 -0.16992,0.16211 0.013,-0.12939 0.0332,-0.31641 0.0332,-0.31641 l 0.008,0.002 c -0.0913,-0.13583 -0.16994,-0.28225 -0.22071,-0.43554 -0.12881,-0.3904 -0.13226,-0.90231 -0.082,-1.47266 0.0502,-0.57034 0.1649,-1.18181 0.3418,-1.70117 0.13223,-0.38827 0.40352,-1.34249 0.58594,-2.07422 0.55374,-2.22155 1.33445,-3.40211 3.34179,-5.07422 0.96419,-0.80309 2.39007,-1.60151 3.78907,-2.12695 0.73256,-0.2752 2.1812,-0.55629 3.52539,-0.75586 0.67209,-0.0997 1.31172,-0.17563 1.80859,-0.21094 0.24844,-0.0176 0.45969,-0.0259 0.63281,-0.0195 z m -13.72265,13.87109 c 0.0378,0.0563 0.0849,0.10107 0.1289,0.15235 0.0392,-0.0374 0.10547,-0.10156 0.10547,-0.10156 z m 94.42773,23.57422 c -0.87815,0.001 -1.50062,0.28754 -2.17383,0.54493 -0.74411,0.2845 -1.59364,0.62626 -2.07812,0.8457 -0.4583,0.2076 -3.38157,1.11953 -4.52149,1.33789 -0.72305,0.13853 -1.94882,0.38221 -2.75586,0.54687 -0.73779,0.15058 -2.05616,0.38767 -2.80468,0.50586 -2.33906,0.36943 -4.10134,1.23788 -5.85352,2.87696 -0.89929,0.84128 -1.75537,2.04699 -2.64648,3.39843 -0.70077,1.06279 -1.32814,2.15419 -1.84766,3.17579 -0.60176,0.0577 -1.39426,0.26339 -2.04297,0.91211 0.0463,-0.0463 -0.32739,0.29759 -0.55078,0.73046 -0.2711,0.52532 -0.3069,0.98822 -0.28711,1.38868 0.0287,0.58111 0.15067,0.97586 0.30469,1.64257 l 0.14258,0.61524 -0.41016,0.87695 c -0.8005,1.71197 -2.15151,4.71531 -2.89258,6.42969 -0.18973,0.43884 -0.38907,0.80424 -0.49414,1.40039 -0.0799,0.45324 -0.0789,0.91327 0.16016,1.47852 0.18971,0.44851 0.51683,0.79369 0.52148,0.79882 0.51881,0.57312 1.16301,0.88932 1.71485,1.04883 a 1.1010082,1.1010082 0 0 0 0,0.002 c 0.28132,0.0813 0.65877,0.15356 1.08007,0.13282 0.39775,-0.0196 1.18978,-0.17135 1.78516,-0.80664 0.26038,-0.2779 0.49037,-0.71764 0.36914,-0.50586 0.0496,-0.0867 0.0926,-0.16807 0.13477,-0.25 0.009,-0.018 0.0198,-0.0458 0.0293,-0.0645 0.0542,0.52682 0.11078,1.08467 0.1543,1.4668 0.0819,0.71942 0.0278,1.99547 -0.29687,4.04688 -0.21462,1.35618 -0.91054,3.36256 -1.67383,4.74609 -0.44807,0.81215 -0.95247,1.75013 -1.1875,2.21484 0.0669,-0.13235 -0.0244,0.0357 -0.10547,0.16211 -0.0811,0.12642 -0.19374,0.29699 -0.32227,0.48828 -0.25706,0.38262 -0.58201,0.85083 -0.86523,1.22461 -0.67034,0.88464 -1.37881,1.86883 -1.76758,2.50977 -0.24531,0.40444 -0.64115,1.03669 -0.82812,1.32422 -0.3249,0.49957 -0.58397,1.03599 -0.79688,1.55859 -0.19638,0.48202 -0.41482,1.02736 -0.47461,1.72461 -0.0451,0.52536 -0.0826,1.13331 0.10352,1.8125 0.20136,0.73478 0.61432,1.27237 0.96875,1.65625 1.08956,1.18011 2.59244,1.78213 4.43554,2.10156 1.22827,0.21284 2.13815,0.26262 3.71485,0.21289 1.0772,-0.034 2.18645,-0.0897 2.9082,-0.19531 0.30556,-0.0447 1.29332,-0.15723 1.97852,-0.21875 0.84189,-0.0756 1.97062,-0.23164 2.76367,-0.38672 0.65553,-0.1282 1.79468,-0.34859 2.51758,-0.48633 1.33277,-0.25396 2.21286,-0.43095 2.8457,-0.58398 0.31108,-0.0752 0.58043,-0.14566 0.85742,-0.24805 -0.065,0.024 0.18012,-0.0167 0.50195,-0.1914 0.32183,-0.17473 0.62192,-0.47623 0.86719,-0.86328 0.61472,-0.97014 0.46929,-2.03858 0.33399,-2.56641 -0.0594,-0.23169 -0.14304,-0.63825 -0.41797,-1.07617 -0.27493,-0.43795 -0.76092,-0.85389 -1.38086,-1.0918 -0.49805,-0.19107 -1.14497,-0.16467 -0.97461,-0.16602 -0.16838,10e-4 -0.31819,0.0148 -0.45313,0.0293 -0.27731,0.0297 -0.5666,0.0772 -0.86328,0.14258 -1.14977,0.25325 -1.96799,0.41368 -2.48437,0.50977 -0.2582,0.0481 -0.43841,0.0797 -0.5586,0.10156 -0.0601,0.0109 -0.0943,0.016 -0.16211,0.0312 -0.009,0.002 -0.0273,0.006 -0.041,0.01 -0.0257,0.002 -0.0458,0.005 -0.0703,0.008 -0.008,-0.002 -0.0147,-10e-4 -0.0332,0.004 -0.22212,0.0243 -0.46583,0.044 -0.64648,0.0742 -0.34799,0.0581 -0.75559,0.13546 -1.16602,0.2207 -0.60862,0.12649 -1.83181,0.2958 -2.27734,0.32618 -0.72333,0.0493 -1.48734,0.11901 -2.06641,0.22851 0.16631,-0.0315 0.0521,-0.007 0.0195,-0.004 -0.0326,0.003 -0.0823,0.008 -0.14453,0.0137 -0.12436,0.0118 -0.29714,0.0269 -0.49609,0.043 -0.3979,0.0321 -0.90126,0.0668 -1.32227,0.082 -0.77627,0.028 -1.57864,-0.0336 -2.23632,-0.11719 0.11014,-0.17999 0.19937,-0.32918 0.29687,-0.48828 0.19358,-0.3159 1.07651,-1.58528 1.73437,-2.45703 a 1.1010082,1.1010082 0 0 0 0.004,-0.006 c 3.5015,-4.63728 5.64536,-10.36724 5.63477,-15.54688 a 1.1010082,1.1010082 0 0 0 0,-0.002 c -0.006,-2.94079 -0.68024,-7.77041 -1.51563,-11.24609 l -0.33203,-1.37891 0.46289,-1.07031 a 1.1010082,1.1010082 0 0 0 0.004,-0.01 c 0.61062,-1.41601 2.30636,-4.38871 3.42968,-5.96289 0.7819,-1.09576 1.62244,-1.61029 3.09571,-1.82617 0.75448,-0.11057 1.80146,-0.29177 2.47461,-0.42969 0.54943,-0.11253 1.85458,-0.36119 2.82226,-0.53711 2.06895,-0.37613 4.87435,-1.20348 6.91016,-2.02929 0.53839,-0.2184 1.28407,-0.50953 1.50586,-0.58985 0.70539,-0.25556 1.56212,-0.65146 2.1582,-1.50781 0.73696,-1.05878 0.66455,-2.27113 0.14063,-3.25 -0.11927,-0.22286 -0.37556,-0.66737 -0.8418,-1.02734 -0.55506,-0.4286 -1.12849,-0.57665 -1.72266,-0.57618 a 1.1010082,1.1010082 0 0 0 -0.002,0 z m 0.004,1.95118 c 0.18983,-1.1e-4 0.38433,0.0559 0.52929,0.16796 0.14451,0.11168 0.23479,0.25301 0.31446,0.40235 v 0.002 c 0.21084,0.39531 0.22073,0.86281 -0.0234,1.21289 -0.24456,0.35062 -0.65721,0.5849 -1.2207,0.78906 -0.29764,0.10784 -1.01452,0.38825 -1.57422,0.61524 -1.86587,0.75691 -4.66386,1.57919 -6.52735,1.91797 -0.98133,0.17845 -2.27573,0.42623 -2.86523,0.54687 -0.60811,0.1247 -1.66119,0.30701 -2.36524,0.41016 -1.89621,0.27797 -3.34337,1.14259 -4.39843,2.62109 -1.24287,1.74176 -2.9154,4.65343 -3.63672,6.32617 l -0.72266,1.67579 0.48438,2.01171 c 0.79177,3.29419 1.45323,8.17242 1.45898,10.79493 0.01,4.62058 -1.97849,10.05191 -5.23828,14.36914 -0.69412,0.91914 -1.53681,2.11834 -1.84375,2.61914 -0.32466,0.52981 -0.77259,1.25956 -0.99219,1.61914 -0.24952,0.40864 -0.34961,0.72524 -0.34961,0.93164 0,0.20107 0.0109,0.21473 0.0156,0.2207 0.005,0.006 0.10632,0.085 0.36719,0.21485 0.78054,0.38848 2.66369,0.66067 4.63086,0.58984 0.92307,-0.0337 1.98909,-0.1193 2.23632,-0.16602 0.36953,-0.0703 1.1629,-0.1553 1.83594,-0.20117 0.63167,-0.0428 1.80249,-0.21142 2.54297,-0.36523 0.38523,-0.08 0.77214,-0.15207 1.08984,-0.20508 0.31771,-0.0529 0.52977,-0.0876 0.70118,-0.0879 0.18563,0 1.06362,-0.15501 3.39257,-0.66797 0.22995,-0.0506 0.45779,-0.0883 0.65039,-0.10937 0.0963,-0.0106 0.18234,-0.0167 0.26172,-0.0176 0.0794,-8.6e-4 0.13403,-0.0113 0.25977,0.0371 0.37918,0.1456 0.52243,0.49119 0.60937,0.83007 0.087,0.33888 0.11518,0.71039 -0.0918,1.03711 -0.12018,0.18955 -0.24445,0.20998 -0.40039,0.26758 -0.15595,0.0577 -0.35791,0.11565 -0.63868,0.1836 -0.56152,0.13578 -1.42863,0.31034 -2.75195,0.5625 -0.72755,0.13866 -1.86429,0.359 -2.52539,0.48828 -0.68262,0.13344 -1.81641,0.29239 -2.5625,0.35937 -0.72202,0.0644 -1.6769,0.17194 -2.08984,0.23242 -0.47999,0.0702 -1.65231,0.1413 -2.6875,0.17383 -1.49879,0.0475 -2.16386,0.009 -3.26758,-0.17969 a 0.34247982,0.34247982 0 0 1 -0.0508,-0.004 c -1.64269,-0.2847 -2.59411,-0.70039 -3.33594,-1.50391 -0.25049,-0.27136 -0.43225,-0.52741 -0.51953,-0.8457 -0.0873,-0.31819 -0.0815,-0.65907 -0.041,-1.13086 0.0279,-0.32544 0.16156,-0.7235 0.33789,-1.15625 0.17633,-0.43275 0.39698,-0.88181 0.625,-1.23242 0.21124,-0.32491 0.60022,-0.9477 0.85938,-1.375 0.28205,-0.46496 1.01145,-1.49543 1.6543,-2.34375 0.62887,-0.82998 1.32176,-1.8619 1.47851,-2.17188 0.20034,-0.39605 0.71641,-1.35511 1.15625,-2.15234 0.89168,-1.61632 1.62886,-3.71842 1.89258,-5.38477 0.33724,-2.1312 0.42635,-3.53813 0.30859,-4.57226 -0.0653,-0.57355 -0.172,-1.57972 -0.23632,-2.24414 -0.0997,-1.02955 -0.33661,-2.67695 -0.57227,-4.07813 -0.11417,-0.67893 -0.2264,-1.28844 -0.32227,-1.75586 -0.0478,0.10304 -0.0715,0.14995 -0.1289,0.27539 -0.34748,0.75958 -0.87169,1.93115 -1.58985,3.55664 -0.27173,0.61504 -0.53606,1.19332 -0.74414,1.63086 -0.10404,0.21878 -0.19255,0.40093 -0.26367,0.53907 -0.0356,0.0691 -0.0664,0.12799 -0.0937,0.17578 -0.0273,0.0478 -0.0317,0.0682 -0.0996,0.14062 -0.13637,0.1455 -0.30577,0.18351 -0.45508,0.19141 -0.14931,0.008 -0.2965,-0.0166 -0.44336,-0.0586 -0.29371,-0.0841 -0.58899,-0.2369 -0.81054,-0.48437 -0.0561,-0.062 -0.12464,-0.13331 -0.17383,-0.25 -0.0492,-0.1168 -0.0546,-0.25905 -0.0332,-0.38086 0.0429,-0.24341 0.15599,-0.48527 0.36328,-0.96484 0.72734,-1.68256 2.08092,-4.69742 2.86719,-6.37891 l 0.69726,-1.48438 -0.29297,-1.27148 c -0.15967,-0.6912 -0.24398,-1.02533 -0.25781,-1.29883 -0.007,-0.13674 0.0116,-0.28025 0.0723,-0.39843 0.0607,-0.11809 0.1371,-0.18594 0.19727,-0.2461 0.29082,-0.29088 0.69106,-0.36545 1.06836,-0.36523 0.18865,2.1e-4 0.37283,0.0228 0.54492,0.0859 0.0555,0.0203 0.0904,0.0915 0.14453,0.12305 0.0589,-0.11285 0.10051,-0.17838 0.22657,-0.46094 0.47381,-1.06229 1.29831,-2.47899 2.15429,-3.77734 0.85598,-1.29835 1.72473,-2.46248 2.35156,-3.04883 1.57416,-1.47264 2.7355,-2.04312 4.82422,-2.37304 0.79597,-0.12577 2.10447,-0.36302 2.89063,-0.52344 0.79618,-0.16246 2.02364,-0.40523 2.73242,-0.54102 1.40571,-0.26933 4.03178,-1.05846 4.95899,-1.47851 0.38394,-0.17398 1.25452,-0.52782 1.96874,-0.80079 0.69002,-0.26378 1.1027,-0.4121 1.48243,-0.4121 z m -23.60547,13.41601 c 9e-4,0.0107 3.5e-4,0.0128 0.002,0.0254 0.004,0.0283 0.0192,0.063 0.0274,0.0957 0.001,-0.0209 -0.0292,-0.10929 -0.0293,-0.12109 z m -55.10156,3.64649 c 1.3e-4,0.003 0.002,0.0352 0.002,0.0352 0,0 -0.01,-0.006 -0.01,-0.006 0.004,-0.0151 0.004,-0.0151 0.008,-0.0293 z m 33.90429,5.62304 c -0.50008,0.49408 -1.04544,1.0399 -1.7539,1.76758 -1.75461,1.80224 -3.98061,4.14916 -5.85743,6.19727 -2.12739,2.3217 -3.57971,3.78874 -8.04882,8.13476 -0.64145,0.62379 -0.84824,0.84119 -1.28321,1.27149 1.9634,-1.2591 3.21305,-2.32016 5.02539,-4.44922 1.81564,-2.13302 3.19216,-3.38014 5.31641,-4.81641 3.09989,-2.09621 4.29473,-3.48787 6.12305,-7.13086 0.18705,-0.37269 0.31995,-0.65119 0.47851,-0.97461 z"
         transform="scale(0.26458333)"
         id="path2038-9-6" />
      <path
         style="fill:url(#linearGradient2430);fill-opacity:1;stroke-width:0.03185187"
         d="m 77.683604,145.79617 c -0.381522,-0.15565 -1.145868,-0.53741 -1.249774,-0.62422 l -0.08718,-0.0728 0.145301,-0.31812 c 0.132653,-0.29044 0.273996,-0.62078 0.576541,-1.34747 0.07589,-0.18229 0.134349,-0.40807 0.188674,-0.72865 0.04329,-0.25546 0.0726,-0.4706 0.06513,-0.47805 -0.03399,-0.034 -0.674243,0.60678 -1.020869,1.0217 -0.414591,0.49626 -0.858723,0.8292 -1.160099,0.86961 -0.336112,0.0451 -1.088146,-0.22465 -1.642917,-0.58928 -0.562365,-0.3696 -0.828592,-0.69209 -1.034145,-1.25267 -0.173603,-0.47343 -0.451389,-1.4075 -0.48191,-1.62041 -0.06285,-0.43846 -0.105087,-0.85736 -0.119579,-1.18592 l -0.01508,-0.34189 0.08521,-0.0324 c 0.236778,-0.09 1.213992,0.007 1.55241,0.1537 0.132161,0.0574 0.151848,0.079 0.16975,0.18627 0.01114,0.0667 0.04778,0.25369 0.08143,0.41543 0.03364,0.16174 0.06117,0.34914 0.06117,0.41645 0,0.0673 0.03633,0.22882 0.08072,0.3589 0.128168,0.37552 0.196456,0.67544 0.285914,1.25575 0.08974,0.58211 0.138298,0.81223 0.171417,0.81223 0.03488,0 0.487544,-0.47684 0.725696,-0.76445 0.265805,-0.321 0.709185,-0.76646 0.997741,-1.00243 0.154527,-0.12635 0.26358,-0.18604 0.429998,-0.23534 0.340629,-0.10093 0.530407,-0.0944 0.7963,0.0274 0.504407,0.23111 1.524827,1.05147 1.677303,1.34848 0.114941,0.22386 0.157065,0.55321 0.119817,0.93675 -0.04997,0.51449 -0.162419,0.88894 -0.506922,1.68803 -0.441373,1.02376 -0.534523,1.21886 -0.580694,1.21618 -0.02232,0 -0.16245,-0.0521 -0.311359,-0.11281 z m -0.87242,-8.08829 c -0.09969,-0.14981 -0.255151,-0.4114 -0.345475,-0.58132 -0.09032,-0.1699 -0.2257,-0.4055 -0.300839,-0.52353 -0.07514,-0.11802 -0.215505,-0.37188 -0.311917,-0.56413 -0.277143,-0.55259 -1.599209,-2.82736 -1.713328,-2.94795 -0.01914,-0.0203 -0.0234,0.003 -0.01169,0.0637 0.01015,0.0526 0.05455,0.55423 0.09866,1.11483 0.04412,0.56058 0.09466,1.14207 0.112317,1.29216 0.01765,0.15008 0.0321,0.2956 0.0321,0.32334 0,0.0316 -0.161723,0.14159 -0.432882,0.29433 l -0.432881,0.24387 -0.235695,-0.038 c -0.129628,-0.0209 -0.248727,-0.054 -0.264658,-0.0735 -0.01726,-0.0212 -0.0175,-0.10632 -5.82e-4,-0.21068 0.03278,-0.20233 0.102836,-0.7769 0.172824,-1.41741 0.0268,-0.24528 0.08562,-0.70324 0.130711,-1.01769 0.07199,-0.50196 0.08055,-0.65165 0.07012,-1.22631 l -0.01187,-0.65453 -0.346513,-0.52556 c -0.190583,-0.28905 -0.470328,-0.72632 -0.621658,-0.97169 -0.151328,-0.24539 -0.433178,-0.66822 -0.626328,-0.93963 -0.42858,-0.60223 -0.766797,-1.1069 -0.88998,-1.32794 l -0.09226,-0.16555 0.07402,-0.0788 0.07401,-0.0788 -0.08784,-0.21751 c -0.106522,-0.26377 -0.135089,-0.60774 -0.07924,-0.95397 0.02131,-0.13211 0.03266,-0.24627 0.02522,-0.25372 -0.0074,-0.007 -0.162748,0.12255 -0.345133,0.28883 -0.253543,0.23117 -0.406614,0.34112 -0.65014,0.46699 -0.304086,0.15717 -0.332844,0.1655 -0.634624,0.1839 -0.313953,0.0192 -0.318412,0.0183 -0.652966,-0.11105 -0.799525,-0.30941 -1.018742,-0.54055 -1.659266,-1.74961 -0.407074,-0.76841 -0.624862,-1.04552 -0.945891,-1.20354 -0.179827,-0.0885 -0.221973,-0.083 -0.460796,0.0611 -0.359895,0.21711 -1.155774,0.57881 -1.379791,0.62704 -0.122631,0.0265 -0.416468,0.0577 -0.652965,0.0695 -0.312355,0.0155 -0.534575,0.0474 -0.812226,0.11608 -0.352228,0.0872 -0.621107,0.20822 -0.621107,0.2796 0,0.0158 0.04222,0.1178 0.09381,0.2269 0.0516,0.10911 0.103241,0.27384 0.114768,0.3661 0.02519,0.20154 0.09936,0.28104 0.476233,0.51034 0.140149,0.0853 0.344138,0.23998 0.453306,0.34378 0.166741,0.15852 0.214054,0.22905 0.295779,0.44097 0.06444,0.16708 0.10387,0.33765 0.116787,0.50515 0.01626,0.21082 0.02865,0.25287 0.07453,0.25287 0.03027,0 0.232394,0.0615 0.449165,0.13677 0.479248,0.16628 0.849773,0.41139 1.343199,0.88855 l 0.323124,0.31244 h 0.17613 c 0.259047,0 0.743154,0.0817 1.052063,0.17696 0.148904,0.0459 0.433097,0.17102 0.631534,0.27807 0.306884,0.16555 0.412155,0.24483 0.704542,0.53063 0.189064,0.1848 0.371975,0.37742 0.406479,0.42802 l 0.06273,0.092 0.25916,-0.0379 c 0.586754,-0.0858 1.015138,0.0604 1.904226,0.64999 0.923824,0.61259 1.185024,0.94762 1.298704,1.6657 0.07403,0.46762 0.06545,0.94581 -0.02898,1.61522 -0.09311,0.66006 -0.163586,0.88682 -0.322956,1.03925 -0.06177,0.0591 -0.197771,0.21133 -0.302215,0.33833 l -0.189896,0.23094 h -0.165406 c -0.433957,0 -1.454952,-0.42342 -1.454952,-0.60339 0,-0.0905 0.09387,-0.1896 0.318167,-0.33601 l 0.218806,-0.14284 0.05402,-0.24722 c 0.02971,-0.13598 0.102154,-0.4075 0.160983,-0.60345 0.05883,-0.19592 0.129206,-0.48257 0.156399,-0.63703 0.07061,-0.40104 0.09708,-1.15432 0.05006,-1.42435 -0.0374,-0.21474 -0.135371,-0.45539 -0.206235,-0.50656 -0.01954,-0.0141 -0.145891,-0.0175 -0.280768,-0.007 -0.249685,0.0186 -0.717146,0.17227 -0.94125,0.30934 l -0.103518,0.0633 v 0.28443 c 0,0.42754 -0.09274,0.78683 -0.333,1.29006 -0.167666,0.35117 -0.237686,0.4613 -0.390287,0.61392 -0.135251,0.13524 -0.21617,0.1905 -0.29671,0.20261 -0.386305,0.0581 -1.216715,-0.27864 -1.566875,-0.63542 -0.127994,-0.13042 -0.135019,-0.14761 -0.147016,-0.35995 -0.02821,-0.49919 0.116841,-1.01608 0.404931,-1.443 0.158937,-0.23554 0.576699,-0.68989 0.687328,-0.74755 0.05957,-0.031 0.06052,-0.044 0.02061,-0.28155 -0.04335,-0.258 -0.238445,-0.69511 -0.395559,-0.88626 l -0.07743,-0.0942 -0.436004,0.11012 -0.43601,0.11013 -0.01176,0.55739 c -0.01203,0.57008 -0.04513,0.79262 -0.175345,1.17853 -0.112804,0.33432 -0.227973,0.54237 -0.40815,0.73733 -0.19545,0.21147 -0.374449,0.28225 -0.711773,0.28143 -0.370697,0 -0.950232,-0.18626 -1.230827,-0.39367 -0.35225,-0.26035 -0.516123,-0.50856 -0.516123,-0.78167 0,-0.2908 0.210846,-0.83343 0.477279,-1.22826 0.218556,-0.32388 0.812237,-0.90836 1.091425,-1.0745 0.118248,-0.0704 0.214552,-0.13705 0.214006,-0.1482 -0.0014,-0.0282 -0.128931,-0.23007 -0.208475,-0.32992 -0.13629,-0.17108 -0.412351,-0.22044 -0.95992,-0.17173 -0.161399,0.0144 -0.306662,0.0426 -0.322799,0.0626 -0.01614,0.02 -0.04,0.0867 -0.05302,0.148 -0.08155,0.3841 -0.536654,1.13755 -1.0383,1.71899 -0.317286,0.3677 -0.639853,0.51169 -0.901496,0.40239 -0.477879,-0.19967 -1.141569,-1.28349 -1.052847,-1.71933 0.06325,-0.3107 0.160107,-0.56574 0.285855,-0.75274 0.204698,-0.30441 0.645102,-0.61954 1.024279,-0.7329 0.112501,-0.0336 0.140327,-0.0598 0.183149,-0.17188 0.107658,-0.28191 0.07859,-0.36646 -0.417069,-1.21304 -0.410911,-0.70184 -0.520452,-0.99676 -0.518184,-1.3952 0.0014,-0.24519 0.0163,-0.32907 0.09141,-0.51455 0.07162,-0.17681 0.107722,-0.22755 0.178738,-0.25123 0.0821,-0.0274 0.103339,-0.015 0.274561,0.16233 l 0.185574,0.192 0.201737,-0.10713 c 0.296381,-0.15737 0.920437,-0.29749 1.421509,-0.3192 0.219997,-0.01 0.500169,-0.0387 0.622611,-0.0648 0.230284,-0.0492 0.828824,-0.3191 1.263443,-0.5698 0.39834,-0.22976 0.689693,-0.27254 1.078011,-0.1583 0.07883,0.0231 0.26305,0.0511 0.409373,0.0619 0.16573,0.0124 0.311501,0.043 0.386608,0.0812 0.326674,0.16665 0.60478,0.86501 0.605278,1.51991 0,0.21801 0.01711,0.33855 0.06594,0.46905 0.06725,0.17975 0.192608,0.30455 0.30592,0.30455 0.106474,0 0.368517,-0.20744 0.870585,-0.68916 0.728554,-0.69901 1.129275,-0.96718 1.445261,-0.96715 0.182343,3e-5 0.431464,0.10166 0.664015,0.27088 0.135695,0.0987 0.228395,0.1432 0.298545,0.1432 0.145745,0 0.299589,0.14997 0.299589,0.29204 0,0.0629 0.0341,0.15742 0.08246,0.2286 0.119011,0.17515 0.08815,0.25939 -0.131934,0.36014 -0.108009,0.0494 -0.191017,0.1123 -0.217832,0.16494 -0.124968,0.24527 -0.19159,1.17424 -0.09994,1.39358 0.04065,0.0973 0.05509,0.10767 0.109389,0.0786 0.03441,-0.0183 0.08262,-0.0335 0.107149,-0.0335 0.02452,0 0.264783,0.25039 0.53391,0.55643 0.269122,0.30607 0.495142,0.55064 0.502269,0.5435 0.0071,-0.007 -0.02363,-0.12494 -0.06834,-0.26181 -0.0628,-0.19228 -0.335469,-1.12156 -0.423488,-1.44332 -0.0072,-0.0262 0.02067,-0.0894 0.06191,-0.14026 0.07175,-0.0885 0.1125,-0.0997 0.946021,-0.25965 0.479076,-0.0919 0.888601,-0.16041 0.910063,-0.15217 0.02146,0.008 0.0569,0.11075 0.07875,0.22778 0.02186,0.11704 0.11617,0.43846 0.209584,0.71425 0.09341,0.27579 0.199163,0.6453 0.235003,0.82118 0.09391,0.46082 0.134537,1.06613 0.09615,1.43259 -0.01743,0.1664 -0.0464,0.54401 -0.06437,0.83908 l -0.03268,0.5365 0.34153,0.45091 c 0.187846,0.24798 0.436118,0.57274 0.551725,0.72164 0.45476,0.58578 1.881442,2.7305 2.150592,3.23297 0.08445,0.15767 0.220305,0.38701 0.30189,0.50963 0.08158,0.12263 0.249894,0.39497 0.374022,0.60517 0.124124,0.21023 0.262622,0.43161 0.307776,0.49194 0.04515,0.0603 0.0821,0.12641 0.0821,0.14682 0,0.0203 -0.12956,0.12288 -0.287912,0.22775 -0.249992,0.16558 -0.281329,0.19614 -0.237947,0.23216 0.06726,0.0558 0.131182,0.024 0.480514,-0.23972 0.156329,-0.11797 0.391733,-0.28643 0.523124,-0.37434 0.385105,-0.25767 1.045051,-0.76406 1.3453,-1.03229 0.153044,-0.13673 0.406609,-0.36294 0.563474,-0.50266 0.156865,-0.13973 0.280706,-0.25858 0.275197,-0.26408 -0.0055,-0.005 -0.06151,0.0203 -0.124465,0.0575 -0.06295,0.0371 -0.129622,0.0581 -0.148167,0.0467 -0.04244,-0.0263 -0.554394,-0.70366 -0.715017,-0.94615 -0.112091,-0.16919 -0.251391,-0.48184 -0.508077,-1.14029 -0.10339,-0.2652 -0.167722,-0.6409 -0.127633,-0.74538 0.01696,-0.0442 0.419563,-0.30573 0.470634,-0.30573 0.0092,0 0.155079,0.18661 0.324087,0.41464 0.384508,0.51887 0.53425,0.63794 1.100085,0.87486 0.765037,0.32033 0.726469,0.29526 0.900777,0.58494 0.08529,0.14173 0.147579,0.27722 0.138419,0.3011 -0.0092,0.024 -0.143446,0.12006 -0.298413,0.21378 l -0.281752,0.17038 -0.0024,0.14887 c -0.004,0.26687 -0.09627,0.3801 -0.922367,1.13202 -0.675068,0.61446 -1.206698,1.03802 -1.719109,1.36966 -0.105114,0.068 -0.298617,0.20404 -0.430003,0.30226 -0.375519,0.28072 -0.49099,0.34908 -0.668697,0.39598 -0.146708,0.0387 -0.179262,0.0377 -0.282092,-0.008 -0.06394,-0.0288 -0.162267,-0.0946 -0.218514,-0.14633 l -0.102269,-0.0941 -0.297462,0.19614 c -0.163601,0.1079 -0.305347,0.19615 -0.314985,0.19615 -0.0097,0 -0.09909,-0.12257 -0.198772,-0.27235 z"
         id="path2004-3-1-4" />
    </g>
  </g>
</svg>
