<svg height='100px' width='100px'  fill="#000000" xmlns="http://www.w3.org/2000/svg" data-name="Layer 1" viewBox="0 0 100 100" x="0px" y="0px"><title>Web</title><path d="M83.59,16.41A47.5,47.5,0,0,0,16.41,83.59,47.5,47.5,0,0,0,83.59,16.41ZM52.27,31.51a87.29,87.29,0,0,0,15.59-1.75,80.56,80.56,0,0,1,2.45,18h-18Zm0-4.54V7.33c5.82,1.44,11,8.31,14.28,18.07A83.12,83.12,0,0,1,52.27,27ZM47.73,7.33V27a83.21,83.21,0,0,1-14.28-1.58C36.75,15.63,41.91,8.77,47.73,7.33Zm0,24.18V47.73h-18a80,80,0,0,1,2.46-18A87.28,87.28,0,0,0,47.73,31.51ZM25.14,47.73H7.1a42.82,42.82,0,0,1,8.69-23.68A56.82,56.82,0,0,0,27.7,28.69,84.42,84.42,0,0,0,25.14,47.73Zm0,4.54a84.49,84.49,0,0,0,2.56,19A57,57,0,0,0,15.79,76,42.82,42.82,0,0,1,7.1,52.27Zm4.55,0h18V68.49a87.29,87.29,0,0,0-15.59,1.75A80.56,80.56,0,0,1,29.69,52.27ZM47.73,73V92.67c-5.82-1.44-11-8.31-14.28-18.07A83.12,83.12,0,0,1,47.73,73Zm4.54,19.64V73a83.21,83.21,0,0,1,14.28,1.58C63.25,84.37,58.09,91.23,52.27,92.67Zm0-24.18V52.27h18a80,80,0,0,1-2.46,18A87.28,87.28,0,0,0,52.27,68.49ZM74.86,52.27h18A42.82,42.82,0,0,1,84.21,76,56.82,56.82,0,0,0,72.3,71.31,84.42,84.42,0,0,0,74.86,52.27Zm0-4.54a85.08,85.08,0,0,0-2.55-19,57.16,57.16,0,0,0,11.9-4.64A42.82,42.82,0,0,1,92.9,47.73ZM81.19,20.5A52.74,52.74,0,0,1,71,24.34,55.43,55.43,0,0,0,68,17,36.55,36.55,0,0,0,62.7,9,43,43,0,0,1,81.19,20.5ZM37.3,9A36.55,36.55,0,0,0,32,17a54.09,54.09,0,0,0-3,7.34A53.61,53.61,0,0,1,18.8,20.5,43.13,43.13,0,0,1,37.3,9ZM18.81,79.5A52.74,52.74,0,0,1,29,75.66,55.43,55.43,0,0,0,32,83a36.55,36.55,0,0,0,5.32,8A43,43,0,0,1,18.81,79.5ZM62.7,91A36.55,36.55,0,0,0,68,83a54.09,54.09,0,0,0,3-7.34A53.61,53.61,0,0,1,81.2,79.5,43.13,43.13,0,0,1,62.7,91Z"></path></svg>